# xmcd
#
# Track frame offsets:
# 150
# 16998
# 34126
# 50294
# 65694
# 75604
# 92828
# 109294
# 127294
# 145012
#
# Disc length: 2148 seconds
#
#
# Revision: 0
# Processed by: cddbd v1.5.2PL0 Copyright (c) Steve Scherf et al.
# Submitted via: FreeRIP 2.945 
#
DISCID=8908620a
DTITLE=Reba McEntire - Christmas Collection CD 2
DYEAR=2005
DGENRE=Country
TTITLE0=This Is My Prayer For You
TTITLE1=I Saw Mommy Kissing Santa Claus
TTITLE2=One Child, One Day
TTITLE3=Mary, Did You Know?
TTITLE4=Up On The Housetop
TTITLE5=The Angels Sang
TTITLE6=Santa Clause Is Coming Back To Town
TTITLE7=The Secret Of Giving
TTITLE8=This Christmas
TTITLE9='Til The Season Comes 'Round Again
EXTD=http://www.walmart.com/catalog/product.do?product_id=4169124
EXTT0=
EXTT1=
EXTT2=
EXTT3=
EXTT4=
EXTT5=
EXTT6=
EXTT7=
EXTT8=
EXTT9=
PLAYORDER=
